<svg width="24" height="24" viewBox="0 0 24 24" fill="none" xmlns="http://www.w3.org/2000/svg">
<path d="M5.4375 19.3H8.71875V12.7H15.2812V19.3H18.5625V9.4L12 4.45L5.4375 9.4V19.3ZM5.4375 21.5C4.83594 21.5 4.32115 21.2848 3.89312 20.8543C3.46437 20.4231 3.25 19.905 3.25 19.3V9.4C3.25 9.05167 3.32766 8.72167 3.48297 8.41C3.63755 8.09833 3.85156 7.84167 4.125 7.64L10.6875 2.69C10.888 2.54333 11.0977 2.43333 11.3164 2.36C11.5352 2.28667 11.763 2.25 12 2.25C12.237 2.25 12.4648 2.28667 12.6836 2.36C12.9023 2.43333 13.112 2.54333 13.3125 2.69L19.875 7.64C20.1484 7.84167 20.3628 8.09833 20.5181 8.41C20.6727 8.72167 20.75 9.05167 20.75 9.4V19.3C20.75 19.905 20.536 20.4231 20.108 20.8543C19.6792 21.2848 19.1641 21.5 18.5625 21.5H13.0938V14.9H10.9062V21.5H5.4375Z" fill="#E3E3E3"/>
</svg>
