<svg width="176" height="69" viewBox="0 0 176 69" fill="none" xmlns="http://www.w3.org/2000/svg">
<path d="M33.3653 65.6844C31.0655 68.0001 28.3643 69.1027 25.2614 68.9925C22.1586 68.8822 19.4938 67.7795 17.2671 65.6844C16.9751 65.3904 16.6648 65.0412 16.3363 64.6369C16.0077 64.2325 15.7339 63.8466 15.5149 63.479L1.71648 40.3225C0.292828 37.8598 -0.245238 35.2038 0.102278 32.3545C0.448334 29.5066 1.60696 27.0902 3.57817 25.1054L24.9329 3.60293C26.9041 1.61808 29.3039 0.451436 32.1322 0.102985C34.962 -0.246935 37.5997 0.294855 40.0455 1.72835L63.0429 15.6223C63.4444 15.8795 63.846 16.1545 64.2475 16.4471C64.649 16.7426 65.0141 17.0558 65.3426 17.3866C67.5328 19.5919 68.6375 22.2656 68.6564 25.4075C68.674 28.5509 67.5328 31.2805 65.2331 33.5961C63.6999 35.1399 61.8748 36.1691 59.7575 36.6836C57.6403 37.1982 55.5596 37.088 53.5154 36.3528L48.8064 34.6988C48.2223 34.4783 47.6755 34.4599 47.1659 34.6437C46.6534 34.8275 46.1781 35.1399 45.7401 35.581L35.3365 46.0565C34.8984 46.4976 34.5889 46.9754 34.4078 47.49C34.2238 48.0046 34.2414 48.5559 34.4604 49.144L36.1031 53.8856C36.8331 55.944 36.9427 58.0391 36.4316 60.171C35.9205 62.3028 34.8984 64.1406 33.3653 65.6844ZM29.1491 61.1082C29.7697 60.4834 30.1989 59.7203 30.4369 58.8191C30.6735 57.9193 30.6275 56.9364 30.299 55.8705L28.711 51.184C28.127 49.4932 28.0357 47.8032 28.4373 46.1139C28.8388 44.4216 29.6784 42.9322 30.956 41.6458L41.3596 31.1702C42.6007 29.9205 44.0791 29.0935 45.7948 28.6891C47.5105 28.2848 49.2079 28.34 50.8871 28.8545L55.5413 30.4534C56.5999 30.7843 57.5768 30.8298 58.4719 30.5902C59.3655 30.352 60.1226 29.9205 60.7431 29.2956C61.6922 28.34 62.2215 27.1454 62.331 25.7119C62.4406 24.2784 61.9843 23.0103 60.9622 21.9076L60.4409 21.3827C60.2773 21.218 60.0678 21.0806 59.8123 20.9703L36.8696 7.13154C35.6285 6.39641 34.3144 6.10236 32.9272 6.24938C31.5401 6.39641 30.3355 6.98451 29.3134 8.01369L7.95863 29.5162C6.93652 30.5453 6.3437 31.7671 6.18016 33.1815C6.01517 34.5974 6.31596 35.9118 7.08254 37.1247L20.8262 60.2261C20.9722 60.5201 21.2643 60.8877 21.7023 61.3288C22.7609 62.3947 24.0298 62.8637 25.5089 62.7358C26.9866 62.6064 28.2 62.0639 29.1491 61.1082ZM32.8725 26.4838C32.2519 27.1086 31.5218 27.4203 30.6822 27.4188C29.8427 27.4203 29.1126 27.1086 28.492 26.4838C27.8715 25.8589 27.5612 25.123 27.5612 24.2762C27.5612 23.4322 27.8715 22.6979 28.492 22.073C29.1126 21.4481 29.8427 21.135 30.6822 21.1335C31.5218 21.135 32.2519 21.4481 32.8725 22.073C33.493 22.6979 33.8033 23.4322 33.8033 24.2762C33.8033 25.123 33.493 25.8589 32.8725 26.4838ZM32.8725 17.6622C32.2519 18.2871 31.5218 18.5988 30.6822 18.5973C29.8427 18.5988 29.1126 18.2871 28.492 17.6622C27.8715 17.0374 27.5612 16.3015 27.5612 15.4546C27.5612 14.6107 27.8715 13.8763 28.492 13.2515C29.1126 12.6266 29.8419 12.3142 30.6801 12.3142C31.5211 12.3142 32.2519 12.6266 32.8725 13.2515C33.493 13.8763 33.8026 14.6115 33.8011 15.4569C33.8026 16.3022 33.493 17.0374 32.8725 17.6622ZM41.6334 26.4838C41.0128 27.1086 40.2827 27.4203 39.4432 27.4188C38.6036 27.4203 37.8735 27.1086 37.2529 26.4838C36.6324 25.8589 36.3221 25.123 36.3221 24.2762C36.3221 23.4322 36.6324 22.6979 37.2529 22.073C37.8735 21.4481 38.6028 21.1357 39.441 21.1357C40.282 21.1357 41.0128 21.4481 41.6334 22.073C42.254 22.6979 42.5635 23.433 42.562 24.2784C42.5635 25.1238 42.254 25.8589 41.6334 26.4838ZM41.6334 17.6622C41.0128 18.2871 40.2827 18.5988 39.4432 18.5973C38.6036 18.5988 37.8735 18.2871 37.2529 17.6622C36.6324 17.0374 36.3221 16.3015 36.3221 15.4546C36.3221 14.6107 36.6324 13.8763 37.2529 13.2515C37.8735 12.6266 38.6028 12.3142 39.441 12.3142C40.282 12.3142 41.0128 12.6266 41.6334 13.2515C42.254 13.8763 42.5635 14.6115 42.562 15.4569C42.5635 16.3022 42.254 17.0374 41.6334 17.6622ZM25.2067 40.8187C24.7686 41.2598 24.2211 41.4804 23.564 41.4804C22.9069 41.4804 22.3594 41.2598 21.9213 40.8187L19.7311 38.6134L17.5409 40.8187C17.1028 41.2598 16.5553 41.4804 15.8982 41.4804C15.2411 41.4804 14.6936 41.2598 14.2555 40.8187C13.8175 40.3777 13.5985 39.8263 13.5985 39.1647C13.5985 38.5031 13.8175 37.9517 14.2555 37.5107L16.4458 35.3053L14.2555 33.0999C13.8175 32.6588 13.5985 32.1075 13.5985 31.4459C13.5985 30.7843 13.8175 30.2329 14.2555 29.7918C14.6936 29.3508 15.2411 29.1302 15.8982 29.1302C16.5553 29.1302 17.1028 29.3508 17.5409 29.7918L19.7311 31.9972L21.9213 29.7918C22.3594 29.3508 22.9069 29.1302 23.564 29.1302C24.2211 29.1302 24.7686 29.3508 25.2067 29.7918C25.6447 30.2329 25.8637 30.7843 25.8637 31.4459C25.8637 32.1075 25.6447 32.6588 25.2067 33.0999L23.0164 35.3053L25.2067 37.5107C25.6447 37.9517 25.8637 38.5031 25.8637 39.1647C25.8637 39.8263 25.6447 40.3777 25.2067 40.8187Z" fill="#E3E3E3"/>
<path d="M75.8809 44.8288C77.4729 44.8288 78.888 45.1596 80.1262 45.8211C81.3897 46.4572 82.3752 47.4496 83.0827 48.7981C83.8155 50.1467 84.1819 51.8896 84.1819 54.0269V65.8585H76.9801V55.2101C76.9801 53.7343 76.7022 52.6656 76.1462 52.0041C75.5903 51.3171 74.8322 50.9736 73.872 50.9736C73.1897 50.9736 72.5706 51.139 72.0147 51.4698C71.4588 51.8005 71.0292 52.3094 70.7259 52.9964C70.4227 53.658 70.2711 54.5231 70.2711 55.5917V65.8585H63.0693V55.2101C63.0693 53.7343 62.7913 52.6656 62.2354 52.0041C61.7048 51.3171 60.9467 50.9736 59.9612 50.9736C59.2536 50.9736 58.6219 51.139 58.066 51.4698C57.5353 51.8005 57.1057 52.3094 56.7772 52.9964C56.474 53.658 56.3224 54.5231 56.3224 55.5917V65.8585H49.1206V45.1723H55.9812V50.9354L54.6167 49.2943C55.3748 47.8185 56.4108 46.7117 57.7248 45.9738C59.0388 45.2105 60.5045 44.8288 62.1217 44.8288C63.9664 44.8288 65.5836 45.3122 66.9734 46.2791C68.3885 47.2206 69.3361 48.6963 69.8163 50.7064L67.4662 50.2103C68.199 48.5309 69.2982 47.2206 70.7639 46.2791C72.2548 45.3122 73.9604 44.8288 75.8809 44.8288Z" fill="#E3E3E3"/>
<path d="M101.274 65.8585V62.0037L100.781 61.0495V53.9506C100.781 52.8056 100.427 51.9278 99.7197 51.3171C99.0374 50.681 97.9382 50.3629 96.422 50.3629C95.4365 50.3629 94.4384 50.5283 93.4276 50.8591C92.4168 51.1644 91.5576 51.597 90.8501 52.1567L88.4242 47.2333C89.5866 46.47 90.9764 45.8847 92.5937 45.4776C94.2362 45.0451 95.8661 44.8288 97.4833 44.8288C100.819 44.8288 103.396 45.6049 105.216 47.157C107.06 48.6836 107.983 51.0881 107.983 54.3704V65.8585H101.274ZM95.2091 66.202C93.5666 66.202 92.1767 65.9221 91.0396 65.3623C89.9025 64.8025 89.0307 64.0392 88.4242 63.0723C87.843 62.1055 87.5524 61.0241 87.5524 59.8282C87.5524 58.556 87.8683 57.4619 88.5 56.5459C89.157 55.6044 90.1552 54.892 91.4945 54.4086C92.8337 53.8997 94.5647 53.6452 96.6873 53.6452H101.539V57.4237H97.6728C96.5104 57.4237 95.6892 57.6145 95.2091 57.9962C94.7542 58.3779 94.5268 58.8868 94.5268 59.5229C94.5268 60.159 94.7669 60.6679 95.247 61.0495C95.7271 61.4312 96.3841 61.622 97.218 61.622C98.0014 61.622 98.7089 61.4312 99.3406 61.0495C99.9976 60.6424 100.478 60.0318 100.781 59.2175L101.766 61.8892C101.387 63.3141 100.642 64.3954 99.5301 65.1333C98.4436 65.8458 97.0032 66.202 95.2091 66.202Z" fill="#E3E3E3"/>
<path d="M125.454 66.202C123.609 66.202 122.068 65.8203 120.83 65.057C119.617 64.2937 118.707 63.1232 118.101 61.5457C117.494 59.9681 117.191 57.9453 117.191 55.4772C117.191 53.06 117.507 51.0626 118.138 49.4851C118.795 47.9076 119.743 46.7371 120.981 45.9738C122.219 45.2105 123.71 44.8288 125.454 44.8288C127.324 44.8288 129.017 45.2614 130.533 46.1265C132.075 46.9916 133.287 48.2256 134.172 49.8286C135.082 51.4061 135.536 53.289 135.536 55.4772C135.536 57.6909 135.082 59.5992 134.172 61.2022C133.287 62.7797 132.075 64.0138 130.533 64.9043C129.017 65.7694 127.324 66.202 125.454 66.202ZM112.529 65.8585V37.539H119.73V48.6454L119.351 55.4772L119.389 62.309V65.8585H112.529ZM123.938 60.4389C124.746 60.4389 125.467 60.248 126.098 59.8664C126.755 59.4847 127.273 58.9249 127.652 58.187C128.057 57.4237 128.259 56.5204 128.259 55.4772C128.259 54.434 128.057 53.5562 127.652 52.8437C127.273 52.1059 126.755 51.5461 126.098 51.1644C125.467 50.7828 124.746 50.5919 123.938 50.5919C123.129 50.5919 122.396 50.7828 121.739 51.1644C121.108 51.5461 120.59 52.1059 120.185 52.8437C119.806 53.5562 119.617 54.434 119.617 55.4772C119.617 56.5204 119.806 57.4237 120.185 58.187C120.59 58.9249 121.108 59.4847 121.739 59.8664C122.396 60.248 123.129 60.4389 123.938 60.4389Z" fill="#E3E3E3"/>
<path d="M150.986 65.8585V62.0037L150.493 61.0495V53.9506C150.493 52.8056 150.139 51.9278 149.432 51.3171C148.75 50.681 147.65 50.3629 146.134 50.3629C145.149 50.3629 144.151 50.5283 143.14 50.8591C142.129 51.1644 141.27 51.597 140.562 52.1567L138.136 47.2333C139.299 46.47 140.689 45.8847 142.306 45.4776C143.948 45.0451 145.578 44.8288 147.196 44.8288C150.531 44.8288 153.109 45.6049 154.928 47.157C156.773 48.6836 157.695 51.0881 157.695 54.3704V65.8585H150.986ZM144.921 66.202C143.279 66.202 141.889 65.9221 140.752 65.3623C139.615 64.8025 138.743 64.0392 138.136 63.0723C137.555 62.1055 137.265 61.0241 137.265 59.8282C137.265 58.556 137.58 57.4619 138.212 56.5459C138.869 55.6044 139.867 54.892 141.207 54.4086C142.546 53.8997 144.277 53.6452 146.4 53.6452H151.251V57.4237H147.385C146.223 57.4237 145.401 57.6145 144.921 57.9962C144.466 58.3779 144.239 58.8868 144.239 59.5229C144.239 60.159 144.479 60.6679 144.959 61.0495C145.439 61.4312 146.096 61.622 146.93 61.622C147.714 61.622 148.421 61.4312 149.053 61.0495C149.71 60.6424 150.19 60.0318 150.493 59.2175L151.479 61.8892C151.1 63.3141 150.354 64.3954 149.242 65.1333C148.156 65.8458 146.715 66.202 144.921 66.202Z" fill="#E3E3E3"/>
<path d="M162.241 65.8585V45.1723H169.101V51.2026L168.078 49.4851C168.685 47.933 169.67 46.7753 171.035 46.012C172.399 45.2232 174.054 44.8288 176 44.8288V51.3553C175.671 51.3044 175.381 51.2789 175.128 51.2789C174.901 51.2535 174.648 51.2408 174.37 51.2408C172.905 51.2408 171.717 51.6479 170.807 52.4621C169.897 53.2509 169.443 54.5485 169.443 56.3551V65.8585H162.241Z" fill="#E3E3E3"/>
</svg>
